<svg width="24" height="24" viewBox="0 0 24 24" fill="none" xmlns="http://www.w3.org/2000/svg">
<path fill-rule="evenodd" clip-rule="evenodd" d="M4.06068 17.4955C3.47489 18.0812 3.47489 19.031 4.06068 19.6168C4.64646 20.2026 5.59621 20.2026 6.182 19.6168L11.8388 13.96L17.4957 19.617C18.0815 20.2028 19.0313 20.2028 19.617 19.617C20.2028 19.0312 20.2028 18.0814 19.617 17.4957L13.9601 11.8387L19.617 6.18175C20.2028 5.59597 20.2028 4.64622 19.617 4.06043C19.0312 3.47465 18.0815 3.47465 17.4957 4.06043L11.8388 9.71738L6.18202 4.06063C5.59623 3.47484 4.64648 3.47484 4.0607 4.06063C3.47491 4.64642 3.47491 5.59616 4.0607 6.18195L9.71744 11.8387L4.06068 17.4955Z" fill="#BC2C2E"/>
</svg>
