<svg width="26" height="20" viewBox="0 0 26 20" fill="none" xmlns="http://www.w3.org/2000/svg">
    <path d="M24.2667 16.3638H1.73333C0.77604 16.3638 0 17.1778 0 18.182C0 19.1861 0.77604 20.0001 1.73333 20.0001H24.2667C25.224 20.0001 26 19.1861 26 18.182C26 17.1778 25.224 16.3638 24.2667 16.3638Z" fill="#E0E0E0"/>
    <path d="M24.2667 8.18164H1.73333C0.77604 8.18164 0 8.99567 0 9.99982C0 11.004 0.77604 11.818 1.73333 11.818H24.2667C25.224 11.818 26 11.004 26 9.99982C26 8.99567 25.224 8.18164 24.2667 8.18164Z" fill="#E0E0E0"/>
    <path d="M24.2667 0H1.73333C0.77604 0 0 0.814028 0 1.81818C0 2.82234 0.77604 3.63636 1.73333 3.63636H24.2667C25.224 3.63636 26 2.82234 26 1.81818C26 0.814028 25.224 0 24.2667 0Z" fill="#E0E0E0"/>
</svg>
