<svg width="50" height="21" viewBox="0 0 50 21" fill="none" xmlns="http://www.w3.org/2000/svg">
<path d="M8.12 3.56C9.26667 3.56 10.1667 3.87333 10.82 4.5C11.4867 5.11333 11.82 5.99333 11.82 7.14C11.82 7.56667 11.7867 7.95333 11.72 8.3L10.16 15.8H35.66L35.2694 17.8H9.66H6.91L8.86 8.68C8.9 8.44 8.92 8.20667 8.92 7.98C8.92 7.31333 8.74 6.80667 8.38 6.46C8.03333 6.11333 7.53333 5.94 6.88 5.94C6.13333 5.94 5.49333 6.16667 4.96 6.62C4.44 7.06 4.09333 7.7 3.92 8.54L2.82 14.8H0L1.96 3.72H4.78L4.54 5.08C4.99333 4.61333 5.53333 4.24667 6.16 3.98C6.78667 3.7 7.44 3.56 8.12 3.56ZM12.3027 9.22C12.5027 8.1 12.896 7.10667 13.4827 6.24C14.0827 5.37333 14.8093 4.70667 15.6627 4.24C16.516 3.77333 17.416 3.54 18.3627 3.54C19.1893 3.54 19.8827 3.70667 20.4427 4.04C21.016 4.37333 21.436 4.79333 21.7027 5.3L21.9827 3.72H24.8027L22.8427 14.8H20.0227L20.3227 13.18C19.8827 13.7 19.3093 14.1333 18.6027 14.48C17.9093 14.8133 17.1493 14.98 16.3227 14.98C15.5093 14.98 14.7893 14.8 14.1627 14.44C13.536 14.0667 13.0493 13.5467 12.7027 12.88C12.356 12.2 12.1827 11.4133 12.1827 10.52C12.1827 10.1067 12.2227 9.67333 12.3027 9.22ZM21.0027 9.26C21.056 8.91333 21.0827 8.66 21.0827 8.5C21.0827 7.71333 20.8493 7.1 20.3827 6.66C19.9293 6.22 19.356 6 18.6627 6C18.1427 6 17.636 6.12667 17.1427 6.38C16.6627 6.63333 16.2427 7.00667 15.8827 7.5C15.5227 7.98 15.2827 8.55333 15.1627 9.22C15.1227 9.47333 15.1027 9.71333 15.1027 9.94C15.1027 10.74 15.3293 11.3733 15.7827 11.84C16.236 12.2933 16.8093 12.52 17.5027 12.52C18.0227 12.52 18.5293 12.3933 19.0227 12.14C19.516 11.8733 19.936 11.4933 20.2827 11C20.6427 10.5067 20.8827 9.9267 21.0027 9.26ZM28.8773 5.34C29.3173 4.80667 29.884 4.37333 30.5773 4.04C31.2707 3.70667 32.024 3.54 32.8373 3.54C33.664 3.54 34.3907 3.72 35.0173 4.08C35.6573 4.42667 36.1507 4.93333 36.4973 5.6C36.844 6.26667 37.0173 7.04667 37.0173 7.94C37.0173 8.35333 36.9773 8.78 36.8973 9.22C36.6973 10.3533 36.2973 11.36 35.6973 12.24C35.0973 13.1067 34.3707 13.78 33.5173 14.26C32.664 14.74 31.7707 14.98 30.8373 14.98C30.0107 14.98 29.3107 14.82 28.7373 14.5C28.164 14.1667 27.744 13.74 27.4773 13.22L27.1973 14.8H24.3773L26.9973 0H29.8173L28.8773 5.34ZM34.0373 9.22C34.0773 8.95333 34.0973 8.71333 34.0973 8.5C34.0973 7.71333 33.8707 7.1 33.4173 6.66C32.964 6.22 32.384 6 31.6773 6C31.1707 6 30.6707 6.13333 30.1773 6.4C29.684 6.65333 29.2573 7.02667 28.8973 7.52C28.5373 8.01333 28.2973 8.59333 28.1773 9.26C28.124 9.60667 28.0973 9.86 28.0973 10.02C28.0973 10.8067 28.324 11.42 28.7773 11.86C29.244 12.3 29.824 12.52 30.5173 12.52C31.0373 12.52 31.544 12.3867 32.0373 12.12C32.5307 11.8533 32.9573 11.4733 33.3173 10.98C33.6773 10.4867 33.9173 9.9 34.0373 9.22ZM41.232 5.32C41.6854 4.81333 42.252 4.39333 42.932 4.06C43.6254 3.71333 44.3787 3.54 45.192 3.54C46.0187 3.54 46.7454 3.72 47.372 4.08C48.012 4.42667 48.5054 4.93333 48.852 5.6C49.1987 6.26667 49.372 7.04667 49.372 7.94C49.372 8.35333 49.332 8.78 49.252 9.22C49.052 10.3533 48.652 11.36 48.052 12.24C47.452 13.1067 46.7254 13.78 45.872 14.26C45.0187 14.74 44.1254 14.98 43.192 14.98C42.3787 14.98 41.6854 14.8133 41.112 14.48C40.552 14.1467 40.1254 13.7267 39.832 13.22L38.632 20.08H35.812L38.692 3.72H41.512L41.232 5.32ZM46.392 9.22C46.432 8.95333 46.452 8.71333 46.452 8.5C46.452 7.71333 46.2254 7.1 45.772 6.66C45.3187 6.22 44.7387 6 44.032 6C43.5254 6 43.0254 6.13333 42.532 6.4C42.0387 6.65333 41.612 7.02667 41.252 7.52C40.892 8.01333 40.652 8.59333 40.532 9.26C40.4787 9.60667 40.452 9.86 40.452 10.02C40.452 10.8067 40.6787 11.42 41.132 11.86C41.5987 12.3 42.1787 12.52 42.872 12.52C43.392 12.52 43.8987 12.3867 44.392 12.12C44.8854 11.8533 45.312 11.4733 45.672 10.98C46.032 10.4867 46.272 9.9 46.392 9.22Z" fill="#6CEC45"/>
</svg>
