<svg width="24" height="24" viewBox="0 0 24 24" fill="none" xmlns="http://www.w3.org/2000/svg">
<g clip-path="url(#clip0_257_52)">
<path fill-rule="evenodd" clip-rule="evenodd" d="M2.06478 22.1728C1.7086 22.2507 1.39142 21.9335 1.46942 21.5774L2.73161 15.8137C2.75217 15.7199 2.79932 15.6339 2.86743 15.5662L18.122 0.393116C18.3174 0.198747 18.6332 0.199169 18.8281 0.394061L23.3818 4.94775C23.5779 5.14384 23.5769 5.46207 23.3797 5.65698L8.07524 20.7776C8.00795 20.8441 7.92317 20.8901 7.83077 20.9104L2.06478 22.1728ZM3.77937 16.5043C3.58411 16.309 3.58411 15.9925 3.77937 15.7972L18.2535 1.32305C18.4488 1.12779 18.7654 1.12779 18.9606 1.32305C19.1559 1.51831 19.1559 1.83489 18.9606 2.03016L4.48648 16.5043C4.29122 16.6996 3.97463 16.6996 3.77937 16.5043ZM5.54714 17.565C5.35188 17.7602 5.35188 18.0768 5.54714 18.2721C5.7424 18.4673 6.05898 18.4673 6.25425 18.2721L20.7284 3.79792C20.9236 3.60266 20.9236 3.28608 20.7284 3.09082C20.5331 2.89555 20.2165 2.89555 20.0213 3.09082L5.54714 17.565ZM7.31491 20.0398C7.11964 19.8446 7.11964 19.528 7.31491 19.3327L21.789 4.85858C21.9843 4.66332 22.3009 4.66332 22.4962 4.85858C22.6914 5.05385 22.6914 5.37043 22.4962 5.56569L8.02201 20.0398C7.82675 20.2351 7.51017 20.2351 7.31491 20.0398ZM3.39984 16.8838L2.56285 19.8421L3.97706 21.2564L6.93538 20.4194L3.39984 16.8838Z" fill="#151515"/>
</g>
<defs>
<clipPath id="clip0_257_52">
<rect width="24" height="24" fill="white"/>
</clipPath>
</defs>
</svg>
