<svg width="24" height="24" viewBox="0 0 24 24" fill="none" xmlns="http://www.w3.org/2000/svg">
<path fill-rule="evenodd" clip-rule="evenodd" d="M4.61433 5.625C4.31358 5.625 4.08089 5.88859 4.11819 6.18702L5.99319 21.187C6.02447 21.4372 6.23717 21.625 6.48933 21.625H17.6065C17.8587 21.625 18.0714 21.4372 18.1027 21.187L19.9777 6.18702C20.015 5.88859 19.7823 5.625 19.4815 5.625H4.61433ZM8.97922 19.9932C9.53473 19.9196 9.92125 19.4038 9.83598 18.85L8.14031 7.83622C8.05753 7.29857 7.56007 6.92576 7.02079 6.99725V6.99725C6.46528 7.07088 6.07876 7.58664 6.16403 8.14049L7.8597 19.1543C7.94248 19.6919 8.43994 20.0647 8.97922 19.9932V19.9932ZM16.9792 6.99725C16.4399 6.92576 15.9425 7.29857 15.8597 7.83622L14.164 18.85C14.0788 19.4038 14.4653 19.9196 15.0208 19.9932V19.9932C15.5601 20.0647 16.0575 19.6919 16.1403 19.1543L17.836 8.14049C17.9212 7.58665 17.5347 7.07088 16.9792 6.99725V6.99725ZM11.9799 19.9996C12.5416 20.0108 13.0029 19.5586 13.0029 18.9969V8.00314C13.0029 7.45705 12.566 7.01133 12.0201 7.0004V7.0004C11.4584 6.98916 10.9971 7.44138 10.9971 8.00314V18.9969C10.9971 19.5429 11.434 19.9887 11.9799 19.9996V19.9996Z" fill="#151515"/>
<path d="M3.65434 3.23892C3.38474 3.55049 3.58655 4.03613 3.99756 4.06487L19.9586 5.18098C20.3696 5.20972 20.637 4.75689 20.4134 4.41083L19.0566 2.31107C18.9712 2.17888 18.8285 2.09463 18.6715 2.08365L5.70318 1.17682C5.54618 1.16584 5.39318 1.22942 5.2902 1.34843L3.65434 3.23892Z" fill="#151515"/>
</svg>
